<svg preserveAspectRatio="none" width="100%" height="100%" overflow="visible" style="display: block;" viewBox="0 0 260 64" fill="none" xmlns="http://www.w3.org/2000/svg">
<path id="Zure logo" fill-rule="evenodd" clip-rule="evenodd" d="M20.299 0H107.216L96.1668 41.2096C95.5615 43.4672 97.6489 45.3002 100.499 45.3002C103.35 45.3002 105.89 43.4674 106.496 41.2096L117.545 0H141.154L130.105 41.2096C126.732 53.788 116.705 64 98.6234 64C80.5416 64 69.1855 53.788 72.558 41.2096L83.6068 0L36.0467 39.8831H69.3818L63.2714 62.6733H0L47.5603 22.7902H14.1886L20.299 0V0ZM243.196 62.6733H193.027L209.831 0H260L255.417 17.0926H228.857L227.329 22.7902H250.938L246.356 39.8831H222.747L221.219 45.5805H247.779L243.196 62.6733V62.6733ZM180.557 0C193.587 0 200.664 13.0607 197.292 25.6391C195.399 32.7005 190.612 38.1183 184.472 41.5119L193.027 62.6733H167.282L162.699 45.5805H158.008L153.425 62.6733H129.816L146.62 0H180.557V0ZM170.072 17.0926C173.33 17.0928 175.29 19.6457 174.447 22.7902C173.604 25.9348 170.275 28.4878 167.017 28.4878H162.59L165.645 17.0926H170.072Z" fill="var(--fill-0, white)"/>
</svg>
